<svg width="46.865" height="18.638" viewBox="0 0 12.4 4.931" xmlns="http://www.w3.org/2000/svg"><path d="M96.365 176.022c0 .59-.476 1.069-1.066 1.069h-5.133a1.068 1.068 0 0 1 0-2.136H95.3c.59 0 1.066.478 1.066 1.067zM101.498 173.227c0 .59-.477 1.069-1.066 1.069h-5.133a1.068 1.068 0 0 1 0-2.136h5.133c.59 0 1.066.478 1.066 1.067z"  style="stroke-width:.264583" transform="translate(-89.098 -172.16)"/><path d="M99.936 176.024c0 .588-.478 1.067-1.068 1.067h-2.08c.214-.303.375-.672.375-1.069 0-.397-.16-.765-.372-1.067h2.078c.59 0 1.068.478 1.068 1.069zM90.653 173.226c0-.588.478-1.067 1.068-1.067h2.085c-.214.303-.372.672-.372 1.069 0 .397.158.765.37 1.067h-2.083c-.59 0-1.068-.478-1.068-1.069z" style="stroke-width:.264583" transform="translate(-89.098 -172.16)"/></svg>